<svg height="191" viewBox="0 0 272.5 190.9" width="273" xmlns="http://www.w3.org/2000/svg"><path d="M1.5 25.6h246.3v163.8H1.5z" fill="#fff"/><g fill="#a1c3fc"><path d="M247.8 33.1c-.8 0-1.5-.7-1.5-1.5v-4.5h-4.5c-.8 0-1.5-.7-1.5-1.5s.7-1.5 1.5-1.5h6c.8 0 1.5.7 1.5 1.5v6c0 .8-.7 1.5-1.5 1.5zM229.5 27.1h-12.3c-.8 0-1.5-.7-1.5-1.5s.7-1.5 1.5-1.5h12.3c.8 0 1.5.7 1.5 1.5s-.7 1.5-1.5 1.5zm-24.7 0h-12.3c-.8 0-1.5-.7-1.5-1.5s.7-1.5 1.5-1.5h12.3c.8 0 1.5.7 1.5 1.5s-.7 1.5-1.5 1.5zm-24.7 0h-12.3c-.8 0-1.5-.7-1.5-1.5s.7-1.5 1.5-1.5h12.3c.8 0 1.5.7 1.5 1.5s-.6 1.5-1.5 1.5zm-24.6 0h-12.3c-.8 0-1.5-.7-1.5-1.5s.7-1.5 1.5-1.5h12.3c.8 0 1.5.7 1.5 1.5s-.7 1.5-1.5 1.5zm-24.7 0h-12.3c-.8 0-1.5-.7-1.5-1.5s.7-1.5 1.5-1.5h12.3c.8 0 1.5.7 1.5 1.5s-.7 1.5-1.5 1.5zm-24.6 0H93.8c-.8 0-1.5-.7-1.5-1.5s.7-1.5 1.5-1.5h12.3c.8 0 1.5.7 1.5 1.5s-.6 1.5-1.4 1.5zm-24.7 0H69.2c-.8 0-1.5-.7-1.5-1.5s.7-1.5 1.5-1.5h12.3c.8 0 1.5.7 1.5 1.5s-.7 1.5-1.5 1.5zm-24.7 0H44.5c-.8 0-1.5-.7-1.5-1.5s.7-1.5 1.5-1.5h12.3c.8 0 1.5.7 1.5 1.5s-.6 1.5-1.5 1.5zm-24.6 0H19.8c-.8 0-1.5-.7-1.5-1.5s.7-1.5 1.5-1.5h12.3c.8 0 1.5.7 1.5 1.5s-.6 1.5-1.4 1.5zM1.5 33.1c-.8 0-1.5-.7-1.5-1.5v-6c0-.8.7-1.5 1.5-1.5h6c.8 0 1.5.7 1.5 1.5s-.7 1.5-1.5 1.5H3v4.5c0 .8-.7 1.5-1.5 1.5zM1.5 173.2c-.8 0-1.5-.7-1.5-1.5V160c0-.8.7-1.5 1.5-1.5s1.5.7 1.5 1.5v11.7c0 .9-.7 1.5-1.5 1.5zm0-23.3c-.8 0-1.5-.7-1.5-1.5v-11.7c0-.8.7-1.5 1.5-1.5s1.5.7 1.5 1.5v11.7c0 .8-.7 1.5-1.5 1.5zm0-23.4c-.8 0-1.5-.7-1.5-1.5v-11.7c0-.8.7-1.5 1.5-1.5s1.5.7 1.5 1.5V125c0 .9-.7 1.5-1.5 1.5zm0-23.3c-.8 0-1.5-.7-1.5-1.5V90c0-.8.7-1.5 1.5-1.5S3 89.2 3 90v11.7c0 .8-.7 1.5-1.5 1.5zm0-23.4c-.8 0-1.5-.7-1.5-1.5V66.6c0-.8.7-1.5 1.5-1.5s1.5.7 1.5 1.5v11.7c0 .8-.7 1.5-1.5 1.5zm0-23.4c-.8 0-1.5-.7-1.5-1.5V43.3c0-.8.7-1.5 1.5-1.5s1.5.6 1.5 1.5V55c0 .8-.7 1.4-1.5 1.4zM7.5 190.9h-6c-.8 0-1.5-.7-1.5-1.5v-6c0-.8.7-1.5 1.5-1.5s1.5.7 1.5 1.5v4.5h4.5c.8 0 1.5.7 1.5 1.5s-.7 1.5-1.5 1.5zM229.5 190.9h-12.3c-.8 0-1.5-.7-1.5-1.5s.7-1.5 1.5-1.5h12.3c.8 0 1.5.7 1.5 1.5s-.7 1.5-1.5 1.5zm-24.7 0h-12.3c-.8 0-1.5-.7-1.5-1.5s.7-1.5 1.5-1.5h12.3c.8 0 1.5.7 1.5 1.5s-.7 1.5-1.5 1.5zm-24.7 0h-12.3c-.8 0-1.5-.7-1.5-1.5s.7-1.5 1.5-1.5h12.3c.8 0 1.5.7 1.5 1.5s-.6 1.5-1.5 1.5zm-24.6 0h-12.3c-.8 0-1.5-.7-1.5-1.5s.7-1.5 1.5-1.5h12.3c.8 0 1.5.7 1.5 1.5s-.7 1.5-1.5 1.5zm-24.7 0h-12.3c-.8 0-1.5-.7-1.5-1.5s.7-1.5 1.5-1.5h12.3c.8 0 1.5.7 1.5 1.5s-.7 1.5-1.5 1.5zm-24.6 0H93.8c-.8 0-1.5-.7-1.5-1.5s.7-1.5 1.5-1.5h12.3c.8 0 1.5.7 1.5 1.5s-.6 1.5-1.4 1.5zm-24.7 0H69.2c-.8 0-1.5-.7-1.5-1.5s.7-1.5 1.5-1.5h12.3c.8 0 1.5.7 1.5 1.5s-.7 1.5-1.5 1.5zm-24.7 0H44.5c-.8 0-1.5-.7-1.5-1.5s.7-1.5 1.5-1.5h12.3c.8 0 1.5.7 1.5 1.5s-.6 1.5-1.5 1.5zm-24.6 0H19.8c-.8 0-1.5-.7-1.5-1.5s.7-1.5 1.5-1.5h12.3c.8 0 1.5.7 1.5 1.5s-.6 1.5-1.4 1.5zM247.8 190.9h-6c-.8 0-1.5-.7-1.5-1.5s.7-1.5 1.5-1.5h4.5v-4.5c0-.8.7-1.5 1.5-1.5s1.5.7 1.5 1.5v6c0 .9-.7 1.5-1.5 1.5zM247.8 173.2c-.8 0-1.5-.7-1.5-1.5V160c0-.8.7-1.5 1.5-1.5s1.5.7 1.5 1.5v11.7c0 .9-.7 1.5-1.5 1.5zm0-23.3c-.8 0-1.5-.7-1.5-1.5v-11.7c0-.8.7-1.5 1.5-1.5s1.5.7 1.5 1.5v11.7c0 .8-.7 1.5-1.5 1.5zm0-23.4c-.8 0-1.5-.7-1.5-1.5v-11.7c0-.8.7-1.5 1.5-1.5s1.5.7 1.5 1.5V125c0 .9-.7 1.5-1.5 1.5zm0-23.3c-.8 0-1.5-.7-1.5-1.5V90c0-.8.7-1.5 1.5-1.5s1.5.7 1.5 1.5v11.7c0 .8-.7 1.5-1.5 1.5zm0-23.4c-.8 0-1.5-.7-1.5-1.5V66.6c0-.8.7-1.5 1.5-1.5s1.5.7 1.5 1.5v11.7c0 .8-.7 1.5-1.5 1.5zm0-23.4c-.8 0-1.5-.7-1.5-1.5V43.3c0-.8.7-1.5 1.5-1.5s1.5.7 1.5 1.5V55c0 .8-.7 1.4-1.5 1.4z"/></g><circle cx="250.3" cy="22.3" fill="#fcc817" r="22.3"/><path d="M257.4 20.8h-6.3v-6.3c0-.8-.7-1.5-1.5-1.5s-1.5.7-1.5 1.5v6.3h-6.3c-.8 0-1.5.7-1.5 1.5s.7 1.5 1.5 1.5h6.3V30c0 .8.7 1.5 1.5 1.5s1.5-.7 1.5-1.5v-6.3h6.3c.8 0 1.5-.7 1.5-1.5s-.7-1.4-1.5-1.4z" fill="#23286b"/><circle cx="60.3" cy="66.8" fill="#a1c3fc" r="16.6"/><path d="m87.6 167.3 73.2-84.7 65 84.2z" fill="#78a9ef"/><path d="m21.9 167.5 63.6-59.7 56.6 59.3z" fill="#a1c3fc"/></svg>